<?xml version="1.0" encoding="utf-8"?>
<svg
	version="1.1"
	xmlns="http://www.w3.org/2000/svg"
	xmlns:xlink="http://www.w3.org/1999/xlink"
	x="0%" y="0%"
	width="100%" height="100%"
	viewBox="0 0 1024.0 1024.0"
	enable-background="new 0 0 1024.0 1024.0"
	xml:space="preserve">
	<path
		fill="#1563FF"
		stroke="#000000"
		fill-opacity="1.000"
		stroke-opacity="1.000"
		fill-rule="nonzero"
		stroke-width="6.014378"
		stroke-linejoin="miter"
		stroke-linecap="square"
		d="M92.00,221.31L932.00,221.31A21.68 21.68 0 0 1 953.68,242.98L953.68,781.02A21.68 21.68 0 0 1 932.00,802.69L92.00,802.69A21.68 21.68 0 0 1 70.32,781.02L70.32,242.98A21.68 21.68 0 0 1 92.00,221.31z"/>
	<path
		fill="#FFFFFF"
		stroke="#000000"
		fill-opacity="1.000"
		stroke-opacity="1.000"
		fill-rule="nonzero"
		stroke-width="6.014378"
		stroke-linejoin="miter"
		stroke-linecap="square"
		d="M89.11,261.40L934.89,261.40"/>
	<path
		fill="#2B2B2B"
		stroke="#000000"
		fill-opacity="1.000"
		stroke-opacity="1.000"
		fill-rule="nonzero"
		stroke-width="6.014378"
		stroke-linejoin="miter"
		stroke-linecap="square"
		d="M89.11,281.45L934.89,281.45L934.89,782.65L89.11,782.65z"/>
	<path
		fill="#FF0000"
		stroke="#000000"
		fill-opacity="1.000"
		stroke-opacity="1.000"
		fill-rule="nonzero"
		stroke-width="1.2028756"
		stroke-linejoin="miter"
		stroke-linecap="square"
		d="M906.69,231.33L925.49,231.33L925.49,251.38L906.69,251.38z"/>
	<path
		fill="#002FFF"
		stroke="#000000"
		fill-opacity="1.000"
		stroke-opacity="1.000"
		fill-rule="nonzero"
		stroke-width="1.2028756"
		stroke-linejoin="miter"
		stroke-linecap="square"
		d="M878.50,231.33L897.30,231.33L897.30,251.38L878.50,251.38z"/>
	<path
		fill="#FF9A00"
		stroke="#000000"
		fill-opacity="1.000"
		stroke-opacity="1.000"
		fill-rule="nonzero"
		stroke-width="1.2028756"
		stroke-linejoin="miter"
		stroke-linecap="square"
		d="M98.51,231.33L117.31,231.33L117.31,251.38L98.51,251.38z"/>
	<path
		fill="#FF9A00"
		stroke="#000000"
		fill-opacity="1.000"
		stroke-opacity="1.000"
		fill-rule="nonzero"
		stroke-width="16.84026"
		stroke-linejoin="miter"
		stroke-linecap="square"
		d="M136.10,241.35L512.00,241.35"/>
	<path
		fill="#000000"
		stroke="#FFFFFF"
		fill-opacity="0.000"
		stroke-opacity="1.000"
		fill-rule="nonzero"
		stroke-width="31.274767"
		stroke-linejoin="miter"
		stroke-linecap="square"
		d="M706.94,344.73L819.71,513.89L706.94,701.84"/>
	<path
		fill="#FF9A00"
		stroke="#FFFFFF"
		fill-opacity="1.000"
		stroke-opacity="1.000"
		fill-rule="nonzero"
		stroke-width="31.274767"
		stroke-linejoin="miter"
		stroke-linecap="square"
		d="M526.20,705.42L638.97,348.31"/>
	<path
		fill="#000000"
		stroke="#FFFFFF"
		fill-opacity="0.000"
		stroke-opacity="1.000"
		fill-rule="nonzero"
		stroke-width="31.274767"
		stroke-linejoin="miter"
		stroke-linecap="square"
		d="M406.59,606.86C395.26,632.41,383.93,657.95,342.59,670.86C301.25,683.78,229.90,684.06,198.59,622.86C167.27,561.67,176.00,439.01,214.59,382.87C253.17,326.72,321.61,337.11,358.59,350.86C395.56,364.62,401.07,381.74,406.59,398.86"/>
	<path
		fill="#FFFFFF"
		stroke="#FFFFFF"
		fill-opacity="1.000"
		stroke-opacity="1.000"
		fill-rule="nonzero"
		stroke-width="0.0"
		stroke-linejoin="miter"
		stroke-linecap="square"
		d="M470.59,382.86C488.26,382.86,502.59,397.19,502.59,414.86C502.59,432.54,488.26,446.86,470.59,446.86C452.91,446.86,438.59,432.54,438.59,414.86C438.59,397.19,452.91,382.86,470.59,382.86z"/>
	<path
		fill="#FFFFFF"
		stroke="#FFFFFF"
		fill-opacity="1.000"
		stroke-opacity="1.000"
		fill-rule="nonzero"
		stroke-width="0.0"
		stroke-linejoin="miter"
		stroke-linecap="square"
		d="M470.59,574.86C488.26,574.86,502.59,589.19,502.59,606.86C502.59,624.54,488.26,638.86,470.59,638.86C452.91,638.86,438.59,624.54,438.59,606.86C438.59,589.19,452.91,574.86,470.59,574.86z"/>
</svg>