<?xml version="1.0" encoding="utf-8"?>
<svg
	version="1.1"
	xmlns="http://www.w3.org/2000/svg"
	xmlns:xlink="http://www.w3.org/1999/xlink"
	x="0%" y="0%"
	width="100%" height="100%"
	viewBox="0 0 1024.0 1024.0"
	enable-background="new 0 0 1024.0 1024.0"
	xml:space="preserve">
	<path
		fill="#FFF379"
		stroke="#000000"
		fill-opacity="1.000"
		stroke-opacity="1.000"
		fill-rule="nonzero"
		stroke-width="6.144"
		stroke-linejoin="miter"
		stroke-linecap="square"
		d="M161.85,152.00L574.15,152.00A29.85 29.85 0 0 1 604.00,181.85L604.00,234.15A29.85 29.85 0 0 1 574.15,264.00L161.85,264.00A29.85 29.85 0 0 1 132.00,234.15L132.00,181.85A29.85 29.85 0 0 1 161.85,152.00z"/>
	<path
		fill="#FFF379"
		stroke="#000000"
		fill-opacity="1.000"
		stroke-opacity="1.000"
		fill-rule="nonzero"
		stroke-width="6.144"
		stroke-linejoin="miter"
		stroke-linecap="square"
		d="M138.58,208.00L901.42,208.00A26.58 26.58 0 0 1 928.00,234.58L928.00,789.42A26.58 26.58 0 0 1 901.42,816.00L138.58,816.00A26.58 26.58 0 0 1 112.00,789.42L112.00,234.58A26.58 26.58 0 0 1 138.58,208.00z"/>
</svg>