<?xml version="1.0" encoding="utf-8"?>
<svg
	version="1.1"
	xmlns="http://www.w3.org/2000/svg"
	xmlns:xlink="http://www.w3.org/1999/xlink"
	x="0%" y="0%"
	width="100%" height="100%"
	viewBox="0 0 24.0 24.0"
	enable-background="new 0 0 24.0 24.0"
	xml:space="preserve">
	<path
		fill="#FF5E52"
		stroke="#000000"
		fill-opacity="1.000"
		stroke-opacity="1.000"
		fill-rule="nonzero"
		stroke-width="0.29057196"
		stroke-linejoin="miter"
		stroke-linecap="square"
		d="M5.33,0.96C7.85,0.96,9.89,3.06,9.89,5.65C9.89,8.24,7.85,10.34,5.33,10.34C2.81,10.34,0.77,8.24,0.77,5.65C0.77,3.06,2.81,0.96,5.33,0.96z"/>
	<path
		fill="#F8FF00"
		stroke="#000000"
		fill-opacity="1.000"
		stroke-opacity="1.000"
		fill-rule="nonzero"
		stroke-width="0.29057196"
		stroke-linejoin="miter"
		stroke-linecap="square"
		d="M12.11,1.86C17.51,1.86,21.88,6.24,21.88,11.63C21.88,17.02,17.51,21.39,12.11,21.39C6.71,21.39,2.33,17.02,2.33,11.63C2.33,6.24,6.71,1.86,12.11,1.86z"/>
	<path
		fill="#F4FFFF"
		stroke="#000000"
		fill-opacity="1.000"
		stroke-opacity="1.000"
		fill-rule="nonzero"
		stroke-width="0.29057196"
		stroke-linejoin="miter"
		stroke-linecap="square"
		d="M21.30,12.43C22.42,12.43,23.32,13.30,23.32,14.37C23.32,15.44,22.42,16.31,21.30,16.31C20.18,16.31,19.27,15.44,19.27,14.37C19.27,13.30,20.18,12.43,21.30,12.43z"/>
	<path
		fill="#3DF8FF"
		stroke="#000000"
		fill-opacity="1.000"
		stroke-opacity="1.000"
		fill-rule="nonzero"
		stroke-width="0.29057196"
		stroke-linejoin="miter"
		stroke-linecap="square"
		d="M17.93,13.08C20.93,13.08,23.36,15.37,23.36,18.21C23.36,21.04,20.93,23.34,17.93,23.34C14.94,23.34,12.51,21.04,12.51,18.21C12.51,15.37,14.94,13.08,17.93,13.08z"/>
</svg>