<?xml version="1.0" encoding="utf-8"?>
<svg
	version="1.1"
	xmlns="http://www.w3.org/2000/svg"
	xmlns:xlink="http://www.w3.org/1999/xlink"
	x="0%" y="0%"
	width="100%" height="100%"
	viewBox="0 0 1024.0 1024.0"
	enable-background="new 0 0 1024.0 1024.0"
	xml:space="preserve">
	<path
		fill="#FBFBFB"
		stroke="#000000"
		fill-opacity="1.000"
		stroke-opacity="1.000"
		fill-rule="nonzero"
		stroke-width="6.144"
		stroke-linejoin="miter"
		stroke-linecap="square"
		d="M234.58,96.00L789.42,96.00A26.58 26.58 0 0 1 816.00,122.58L816.00,901.42A26.58 26.58 0 0 1 789.42,928.00L234.58,928.00A26.58 26.58 0 0 1 208.00,901.42L208.00,122.58A26.58 26.58 0 0 1 234.58,96.00z"/>
	<path
		fill="#000000"
		stroke="#000000"
		fill-opacity="1.000"
		stroke-opacity="1.000"
		fill-rule="nonzero"
		stroke-width="6.144"
		stroke-linejoin="miter"
		stroke-linecap="square"
		d="M256.00,160.00C264.84,160.00,272.00,167.16,272.00,176.00C272.00,184.84,264.84,192.00,256.00,192.00C247.16,192.00,240.00,184.84,240.00,176.00C240.00,167.16,247.16,160.00,256.00,160.00z"/>
	<path
		fill="#000000"
		stroke="#000000"
		fill-opacity="1.000"
		stroke-opacity="1.000"
		fill-rule="nonzero"
		stroke-width="6.144"
		stroke-linejoin="miter"
		stroke-linecap="square"
		d="M256.00,832.00C264.84,832.00,272.00,839.16,272.00,848.00C272.00,856.84,264.84,864.00,256.00,864.00C247.16,864.00,240.00,856.84,240.00,848.00C240.00,839.16,247.16,832.00,256.00,832.00z"/>
	<path
		fill="#000000"
		stroke="#000000"
		fill-opacity="1.000"
		stroke-opacity="1.000"
		fill-rule="nonzero"
		stroke-width="6.144"
		stroke-linejoin="miter"
		stroke-linecap="square"
		d="M256.00,496.00C264.84,496.00,272.00,503.16,272.00,512.00C272.00,520.84,264.84,528.00,256.00,528.00C247.16,528.00,240.00,520.84,240.00,512.00C240.00,503.16,247.16,496.00,256.00,496.00z"/>
	<path
		fill="#000000"
		stroke="#FF0000"
		fill-opacity="1.000"
		stroke-opacity="1.000"
		fill-rule="nonzero"
		stroke-width="5.2428803"
		stroke-linejoin="miter"
		stroke-linecap="square"
		d="M304.00,912.00L304.00,112.00"/>
	<path
		fill="#000000"
		stroke="#003EFF"
		fill-opacity="1.000"
		stroke-opacity="1.000"
		fill-rule="nonzero"
		stroke-width="5.2428803"
		stroke-linejoin="miter"
		stroke-linecap="square"
		d="M320.00,208.00L784.00,208.00"/>
	<path
		fill="#000000"
		stroke="#003EFF"
		fill-opacity="1.000"
		stroke-opacity="1.000"
		fill-rule="nonzero"
		stroke-width="5.2428803"
		stroke-linejoin="miter"
		stroke-linecap="square"
		d="M320.00,304.00L784.00,304.00"/>
	<path
		fill="#000000"
		stroke="#003EFF"
		fill-opacity="1.000"
		stroke-opacity="1.000"
		fill-rule="nonzero"
		stroke-width="5.2428794"
		stroke-linejoin="miter"
		stroke-linecap="square"
		d="M320.00,256.00L784.00,256.00"/>
	<path
		fill="#000000"
		stroke="#003EFF"
		fill-opacity="1.000"
		stroke-opacity="1.000"
		fill-rule="nonzero"
		stroke-width="5.2428794"
		stroke-linejoin="miter"
		stroke-linecap="square"
		d="M320.00,352.00L784.00,352.00"/>
	<path
		fill="#000000"
		stroke="#003EFF"
		fill-opacity="1.000"
		stroke-opacity="1.000"
		fill-rule="nonzero"
		stroke-width="5.2428803"
		stroke-linejoin="miter"
		stroke-linecap="square"
		d="M320.00,400.00L784.00,400.00"/>
	<path
		fill="#000000"
		stroke="#003EFF"
		fill-opacity="1.000"
		stroke-opacity="1.000"
		fill-rule="nonzero"
		stroke-width="5.2428803"
		stroke-linejoin="miter"
		stroke-linecap="square"
		d="M320.00,496.00L784.00,496.00"/>
	<path
		fill="#000000"
		stroke="#003EFF"
		fill-opacity="1.000"
		stroke-opacity="1.000"
		fill-rule="nonzero"
		stroke-width="5.2428794"
		stroke-linejoin="miter"
		stroke-linecap="square"
		d="M320.00,448.00L784.00,448.00"/>
	<path
		fill="#000000"
		stroke="#003EFF"
		fill-opacity="1.000"
		stroke-opacity="1.000"
		fill-rule="nonzero"
		stroke-width="5.2428794"
		stroke-linejoin="miter"
		stroke-linecap="square"
		d="M320.00,544.00L784.00,544.00"/>
	<path
		fill="#000000"
		stroke="#003EFF"
		fill-opacity="1.000"
		stroke-opacity="1.000"
		fill-rule="nonzero"
		stroke-width="5.2428803"
		stroke-linejoin="miter"
		stroke-linecap="square"
		d="M320.00,592.00L784.00,592.00"/>
	<path
		fill="#000000"
		stroke="#003EFF"
		fill-opacity="1.000"
		stroke-opacity="1.000"
		fill-rule="nonzero"
		stroke-width="5.2428803"
		stroke-linejoin="miter"
		stroke-linecap="square"
		d="M320.00,688.00L784.00,688.00"/>
	<path
		fill="#000000"
		stroke="#003EFF"
		fill-opacity="1.000"
		stroke-opacity="1.000"
		fill-rule="nonzero"
		stroke-width="5.2428794"
		stroke-linejoin="miter"
		stroke-linecap="square"
		d="M320.00,640.00L784.00,640.00"/>
	<path
		fill="#000000"
		stroke="#003EFF"
		fill-opacity="1.000"
		stroke-opacity="1.000"
		fill-rule="nonzero"
		stroke-width="5.2428794"
		stroke-linejoin="miter"
		stroke-linecap="square"
		d="M320.00,736.00L784.00,736.00"/>
	<path
		fill="#000000"
		stroke="#003EFF"
		fill-opacity="1.000"
		stroke-opacity="1.000"
		fill-rule="nonzero"
		stroke-width="5.2428803"
		stroke-linejoin="miter"
		stroke-linecap="square"
		d="M320.00,784.00L784.00,784.00"/>
	<path
		fill="#000000"
		stroke="#003EFF"
		fill-opacity="1.000"
		stroke-opacity="1.000"
		fill-rule="nonzero"
		stroke-width="5.2428803"
		stroke-linejoin="miter"
		stroke-linecap="square"
		d="M320.00,880.00L784.00,880.00"/>
	<path
		fill="#000000"
		stroke="#003EFF"
		fill-opacity="1.000"
		stroke-opacity="1.000"
		fill-rule="nonzero"
		stroke-width="5.2428794"
		stroke-linejoin="miter"
		stroke-linecap="square"
		d="M320.00,832.00L784.00,832.00"/>
	<path
		fill="#FFFC00"
		stroke="#000000"
		fill-opacity="1.000"
		stroke-opacity="1.000"
		fill-rule="nonzero"
		stroke-width="2.047999"
		stroke-linejoin="miter"
		stroke-linecap="square"
		d="M830.52,145.06L873.33,173.14L606.57,579.86L563.75,551.78z"/>
	<path
		fill="#C7C7C7"
		stroke="#000000"
		fill-opacity="1.000"
		stroke-opacity="1.000"
		fill-rule="nonzero"
		stroke-width="2.047999"
		stroke-linejoin="miter"
		stroke-linecap="square"
		d="M865.62,91.54L908.43,119.62L873.33,173.14L830.52,145.06z"/>
	<path
		fill="#FFA03F"
		stroke="#000000"
		fill-opacity="1.000"
		stroke-opacity="1.000"
		fill-rule="nonzero"
		stroke-width="2.047999"
		stroke-linejoin="miter"
		stroke-linecap="square"
		d="M606.57,579.86L543.04,630.04L563.75,551.78"/>
	<path
		fill="#FF3F3F"
		stroke="#000000"
		fill-opacity="1.000"
		stroke-opacity="1.000"
		fill-rule="nonzero"
		stroke-width="2.047999"
		stroke-linejoin="miter"
		stroke-linecap="square"
		d="M908.43,119.62L929.49,87.51C929.92,81.67,930.35,75.83,925.81,69.79C921.27,63.75,911.75,57.51,904.40,55.75C897.05,53.99,891.87,56.71,886.68,59.43L865.62,91.54"/>
	<path
		fill="#000000"
		stroke="#000000"
		fill-opacity="1.000"
		stroke-opacity="1.000"
		fill-rule="nonzero"
		stroke-width="2.047999"
		stroke-linejoin="miter"
		stroke-linecap="square"
		d="M574.80,604.95L543.04,630.04L553.40,590.91L574.80,604.95z"/>
	<path
		fill="#000000"
		stroke="#000000"
		fill-opacity="1.000"
		stroke-opacity="1.000"
		fill-rule="nonzero"
		stroke-width="1.0239995"
		stroke-linejoin="miter"
		stroke-linecap="square"
		d="M841.22,152.08L574.46,558.80"/>
	<path
		fill="#000000"
		stroke="#000000"
		fill-opacity="1.000"
		stroke-opacity="1.000"
		fill-rule="nonzero"
		stroke-width="1.0239995"
		stroke-linejoin="miter"
		stroke-linecap="square"
		d="M851.93,159.10L585.16,565.82"/>
	<path
		fill="#000000"
		stroke="#000000"
		fill-opacity="1.000"
		stroke-opacity="1.000"
		fill-rule="nonzero"
		stroke-width="1.0239995"
		stroke-linejoin="miter"
		stroke-linecap="square"
		d="M862.63,166.12L595.86,572.84"/>
	<path
		fill="#000000"
		stroke="#000000"
		fill-opacity="1.000"
		stroke-opacity="1.000"
		fill-rule="nonzero"
		stroke-width="1.0239995"
		stroke-linejoin="miter"
		stroke-linecap="square"
		d="M858.60,102.24L901.41,130.32"/>
	<path
		fill="#000000"
		stroke="#000000"
		fill-opacity="1.000"
		stroke-opacity="1.000"
		fill-rule="nonzero"
		stroke-width="1.0239995"
		stroke-linejoin="miter"
		stroke-linecap="square"
		d="M851.58,112.95L894.39,141.03"/>
	<path
		fill="#000000"
		stroke="#000000"
		fill-opacity="1.000"
		stroke-opacity="1.000"
		fill-rule="nonzero"
		stroke-width="1.0239995"
		stroke-linejoin="miter"
		stroke-linecap="square"
		d="M844.56,123.65L887.37,151.73"/>
	<path
		fill="#000000"
		stroke="#000000"
		fill-opacity="1.000"
		stroke-opacity="1.000"
		fill-rule="nonzero"
		stroke-width="1.0239995"
		stroke-linejoin="miter"
		stroke-linecap="square"
		d="M837.54,134.35L880.35,162.43"/>
</svg>