<?xml version="1.0" encoding="utf-8"?>
<svg
	version="1.1"
	xmlns="http://www.w3.org/2000/svg"
	xmlns:xlink="http://www.w3.org/1999/xlink"
	x="0%" y="0%"
	width="100%" height="100%"
	viewBox="0 0 64.0 64.0"
	enable-background="new 0 0 64.0 64.0"
	xml:space="preserve">
<defs>
	<linearGradient id="fillGrad0" x1="50.000%" y1="35.714%" x2="50.000%" y2="100.000%">
   		<stop offset="0.000%" style="stop-color:rgb(1,0,6);stop-opacity:1.000" />
		<stop offset="44.444%" style="stop-color:rgb(0,3,101);stop-opacity:1.000" />
		<stop offset="100.000%" style="stop-color:rgb(1,0,175);stop-opacity:1.000" />
	</linearGradient>

	<linearGradient id="fillGrad18" x1="25.037%" y1="50.024%" x2="100.000%" y2="50.000%">
   		<stop offset="0.000%" style="stop-color:rgb(255,255,255);stop-opacity:1.000" />
		<stop offset="75.012%" style="stop-color:rgb(188,188,188);stop-opacity:1.000" />
		<stop offset="100.000%" style="stop-color:rgb(103,103,103);stop-opacity:1.000" />
	</linearGradient>

	<linearGradient id="fillGrad24" x1="25.037%" y1="50.024%" x2="100.000%" y2="50.000%">
   		<stop offset="0.000%" style="stop-color:rgb(255,255,255);stop-opacity:1.000" />
		<stop offset="75.012%" style="stop-color:rgb(188,188,188);stop-opacity:1.000" />
		<stop offset="100.000%" style="stop-color:rgb(103,103,103);stop-opacity:1.000" />
	</linearGradient>

	<linearGradient id="fillGrad31" x1="0.000%" y1="50.000%" x2="100.000%" y2="50.000%">
   		<stop offset="0.000%" style="stop-color:rgb(70,70,70);stop-opacity:1.000" />
		<stop offset="50.000%" style="stop-color:rgb(89,89,89);stop-opacity:1.000" />
		<stop offset="100.000%" style="stop-color:rgb(21,21,21);stop-opacity:1.000" />
	</linearGradient>

	<linearGradient id="fillGrad32" x1="0.000%" y1="50.000%" x2="100.000%" y2="50.000%">
   		<stop offset="0.000%" style="stop-color:rgb(70,70,70);stop-opacity:1.000" />
		<stop offset="50.000%" style="stop-color:rgb(89,89,89);stop-opacity:1.000" />
		<stop offset="100.000%" style="stop-color:rgb(21,21,21);stop-opacity:1.000" />
	</linearGradient>

	<linearGradient id="fillGrad33" x1="0.000%" y1="50.000%" x2="100.000%" y2="50.000%">
   		<stop offset="0.000%" style="stop-color:rgb(70,70,70);stop-opacity:1.000" />
		<stop offset="50.000%" style="stop-color:rgb(89,89,89);stop-opacity:1.000" />
		<stop offset="100.000%" style="stop-color:rgb(21,21,21);stop-opacity:1.000" />
	</linearGradient>

	<linearGradient id="fillGrad42" x1="-3.363%" y1="44.322%" x2="89.991%" y2="44.322%">
   		<stop offset="0.000%" style="stop-color:rgb(174,174,174);stop-opacity:1.000" />
		<stop offset="16.667%" style="stop-color:rgb(255,255,255);stop-opacity:1.000" />
		<stop offset="83.333%" style="stop-color:rgb(255,255,255);stop-opacity:1.000" />
		<stop offset="100.000%" style="stop-color:rgb(174,174,174);stop-opacity:1.000" />
	</linearGradient>

	<radialGradient id="fillGrad46" cx="63.341%" cy="64.984%" fx="63.341%" fy="64.984%" r="66.706%">
   		<stop offset="0.000%" style="stop-color:rgb(0,255,224);stop-opacity:0.388" />
		<stop offset="76.043%" style="stop-color:rgb(0,254,255);stop-opacity:0.400" />
		<stop offset="100.000%" style="stop-color:rgb(255,255,255);stop-opacity:0.780" />
	</radialGradient>

	<radialGradient id="fillGrad47" cx="20.070%" cy="35.035%" fx="20.070%" fy="35.035%" r="80.942%">
   		<stop offset="0.000%" style="stop-color:rgb(255,255,255);stop-opacity:1.000" />
		<stop offset="72.222%" style="stop-color:rgb(212,212,212);stop-opacity:1.000" />
		<stop offset="86.111%" style="stop-color:rgb(168,168,168);stop-opacity:1.000" />
		<stop offset="100.000%" style="stop-color:rgb(60,60,60);stop-opacity:1.000" />
	</radialGradient>

	<radialGradient id="fillGrad48" cx="20.070%" cy="35.035%" fx="20.070%" fy="35.035%" r="80.942%">
   		<stop offset="0.000%" style="stop-color:rgb(255,255,255);stop-opacity:1.000" />
		<stop offset="72.222%" style="stop-color:rgb(212,212,212);stop-opacity:1.000" />
		<stop offset="86.111%" style="stop-color:rgb(168,168,168);stop-opacity:1.000" />
		<stop offset="100.000%" style="stop-color:rgb(60,60,60);stop-opacity:1.000" />
	</radialGradient>

</defs>
	<path
		transform = "rotate(-0.00 32.00 32.00)"
		fill="url(#fillGrad0)"
		stroke="#0044F1"
		fill-opacity="1.0"
		stroke-opacity="1.000"
		fill-rule="nonzero"
		stroke-width="0.384"
		stroke-linejoin="miter"
		stroke-linecap="square"
		d="M32.00,4.00C47.46,4.00,60.00,16.54,60.00,32.00C60.00,47.46,47.46,60.00,32.00,60.00C16.54,60.00,4.00,47.46,4.00,32.00C4.00,16.54,16.54,4.00,32.00,4.00z"/>
	<path
		fill="#FFE816"
		stroke="#FFFFFF"
		fill-opacity="1.000"
		stroke-opacity="1.000"
		fill-rule="nonzero"
		stroke-width="0.09887494"
		stroke-linejoin="miter"
		stroke-linecap="square"
		d="M27.59,48.90L29.35,54.20L31.12,50.67"/>
	<path
		fill="#FFE816"
		stroke="#FFFFFF"
		fill-opacity="1.000"
		stroke-opacity="1.000"
		fill-rule="nonzero"
		stroke-width="0.09887494"
		stroke-linejoin="miter"
		stroke-linecap="square"
		d="M36.41,49.78L34.65,55.08L32.88,51.55"/>
	<path
		fill="#FFE816"
		stroke="#FFFFFF"
		fill-opacity="1.000"
		stroke-opacity="1.000"
		fill-rule="nonzero"
		stroke-width="0.09887494"
		stroke-linejoin="miter"
		stroke-linecap="square"
		d="M38.18,47.36L36.41,52.21L34.65,49.12"/>
	<path
		fill="#FFE816"
		stroke="#FFFFFF"
		fill-opacity="1.000"
		stroke-opacity="1.000"
		fill-rule="nonzero"
		stroke-width="0.09887494"
		stroke-linejoin="miter"
		stroke-linecap="square"
		d="M39.06,45.37L37.30,50.67L35.53,47.14"/>
	<path
		fill="#FFE816"
		stroke="#FFFFFF"
		fill-opacity="1.000"
		stroke-opacity="1.000"
		fill-rule="nonzero"
		stroke-width="0.09887494"
		stroke-linejoin="miter"
		stroke-linecap="square"
		d="M26.70,47.14L28.47,52.43L30.23,48.90"/>
	<path
		fill="#FFE816"
		stroke="#FFFFFF"
		fill-opacity="1.000"
		stroke-opacity="1.000"
		fill-rule="nonzero"
		stroke-width="0.09887494"
		stroke-linejoin="miter"
		stroke-linecap="square"
		d="M24.94,45.37L26.70,50.67L28.47,47.14"/>
	<path
		fill="#FFE816"
		stroke="#FFFFFF"
		fill-opacity="1.000"
		stroke-opacity="1.000"
		fill-rule="nonzero"
		stroke-width="0.09887494"
		stroke-linejoin="miter"
		stroke-linecap="square"
		d="M24.94,45.37L32.00,55.96L39.06,45.37"/>
	<path
		fill="#FF9B0F"
		stroke="#FFFFFF"
		fill-opacity="1.000"
		stroke-opacity="1.000"
		fill-rule="nonzero"
		stroke-width="0.09887494"
		stroke-linejoin="miter"
		stroke-linecap="square"
		d="M32.88,48.02L34.65,49.78L34.65,46.25"/>
	<path
		fill="#FF9B0F"
		stroke="#FFFFFF"
		fill-opacity="1.000"
		stroke-opacity="1.000"
		fill-rule="nonzero"
		stroke-width="0.09887494"
		stroke-linejoin="miter"
		stroke-linecap="square"
		d="M31.12,48.02L28.47,49.78L29.35,46.25"/>
	<path
		fill="#FF9B0F"
		stroke="#FFFFFF"
		fill-opacity="1.000"
		stroke-opacity="1.000"
		fill-rule="nonzero"
		stroke-width="0.09887494"
		stroke-linejoin="miter"
		stroke-linecap="square"
		d="M28.47,45.37L32.00,53.32L35.53,45.37"/>
	<path
		fill="#FF1A1A"
		stroke="#FFFFFF"
		fill-opacity="1.000"
		stroke-opacity="1.000"
		fill-rule="nonzero"
		stroke-width="0.09887494"
		stroke-linejoin="miter"
		stroke-linecap="square"
		d="M32.59,47.14L33.77,48.31L33.18,45.96"/>
	<path
		fill="#FF1A1A"
		stroke="#FFFFFF"
		fill-opacity="1.000"
		stroke-opacity="1.000"
		fill-rule="nonzero"
		stroke-width="0.09887494"
		stroke-linejoin="miter"
		stroke-linecap="square"
		d="M31.41,47.14L30.82,48.31L30.82,45.96"/>
	<path
		fill="#FF1A1A"
		stroke="#FFFFFF"
		fill-opacity="1.000"
		stroke-opacity="1.000"
		fill-rule="nonzero"
		stroke-width="0.09887494"
		stroke-linejoin="miter"
		stroke-linecap="square"
		d="M30.23,45.37L32.00,50.67L33.77,45.37"/>
	<path
		transform = "rotate(-0.00 27.83 28.40)"
		fill="url(#fillGrad18)"
		stroke="#000000"
		fill-opacity="1.0"
		stroke-opacity="1.000"
		fill-rule="nonzero"
		stroke-width="0.1359147"
		stroke-linejoin="miter"
		stroke-linecap="square"
		d="M23.65,39.20L23.65,21.92A4.17 4.32 -0.00 1 1 32.00,21.92L32.00,39.20"/>
	<path
		fill="#7D7D7D"
		stroke="#000000"
		fill-opacity="1.000"
		stroke-opacity="1.000"
		fill-rule="nonzero"
		stroke-width="0.1359147"
		stroke-linejoin="miter"
		stroke-linecap="square"
		d="M25.97,26.24L29.69,26.24A0.22 0.22 0 0 1 29.91,26.46L29.91,34.66A0.22 0.22 0 0 1 29.69,34.88L25.97,34.88A0.22 0.22 0 0 1 25.74,34.66L25.74,26.46A0.22 0.22 0 0 1 25.97,26.24z"/>
	<path
		transform = "rotate(-0.00 36.17 28.40)"
		fill="url(#fillGrad24)"
		stroke="#000000"
		fill-opacity="1.0"
		stroke-opacity="1.000"
		fill-rule="nonzero"
		stroke-width="0.1359147"
		stroke-linejoin="miter"
		stroke-linecap="square"
		d="M32.00,39.20L32.00,21.92A4.17 4.32 -0.00 1 1 40.35,21.92L40.35,39.20"/>
	<path
		fill="#7D7D7D"
		stroke="#000000"
		fill-opacity="1.000"
		stroke-opacity="1.000"
		fill-rule="nonzero"
		stroke-width="0.1359147"
		stroke-linejoin="miter"
		stroke-linecap="square"
		d="M34.31,26.24L38.03,26.24A0.22 0.22 0 0 1 38.26,26.46L38.26,34.66A0.22 0.22 0 0 1 38.03,34.88L34.31,34.88A0.22 0.22 0 0 1 34.09,34.66L34.09,26.46A0.22 0.22 0 0 1 34.31,26.24z"/>
	<path
		fill="#7D7D7D"
		stroke="#940000"
		fill-opacity="0.000"
		stroke-opacity="1.000"
		fill-rule="nonzero"
		stroke-width="0.40774408"
		stroke-linejoin="miter"
		stroke-linecap="square"
		d="M27.83,28.39C28.89,27.67,29.95,26.95,30.61,26.95C31.27,26.95,31.53,27.67,32.00,28.39C32.47,29.12,33.14,29.85,33.86,29.85C34.59,29.85,35.38,29.12,36.17,28.39"/>
	<path
		fill="#7D7D7D"
		stroke="#000000"
		fill-opacity="0.000"
		stroke-opacity="1.000"
		fill-rule="nonzero"
		stroke-width="0.40774408"
		stroke-linejoin="miter"
		stroke-linecap="square"
		d="M27.83,30.56C28.89,29.84,29.95,29.12,30.61,29.12C31.27,29.11,31.53,29.83,32.00,30.56C32.47,31.28,33.14,32.01,33.86,32.01C34.59,32.01,35.38,31.28,36.17,30.56"/>
	<path
		fill="#7D7D7D"
		stroke="#000278"
		fill-opacity="0.000"
		stroke-opacity="1.000"
		fill-rule="nonzero"
		stroke-width="0.40774408"
		stroke-linejoin="miter"
		stroke-linecap="square"
		d="M27.83,32.72C28.89,32.00,29.95,31.28,30.61,31.28C31.27,31.28,31.53,31.99,32.00,32.72C32.47,33.44,33.14,34.17,33.86,34.17C34.59,34.17,35.38,33.44,36.17,32.72"/>
	<path
		transform = "rotate(-0.00 32.00 44.97)"
		fill="url(#fillGrad31)"
		stroke="#000000"
		fill-opacity="1.0"
		stroke-opacity="1.000"
		fill-rule="nonzero"
		stroke-width="0.1359147"
		stroke-linejoin="miter"
		stroke-linecap="square"
		d="M40.35,43.53L39.65,46.41L24.35,46.41L23.65,43.53L40.35,43.53z"/>
	<path
		transform = "rotate(-0.00 32.00 41.64)"
		fill="url(#fillGrad32)"
		stroke="#000000"
		fill-opacity="1.0"
		stroke-opacity="1.000"
		fill-rule="nonzero"
		stroke-width="0.1359147"
		stroke-linejoin="miter"
		stroke-linecap="square"
		d="M23.74,39.20L40.26,39.20A0.61 0.61 0 0 1 40.87,39.81L40.87,43.46A0.61 0.61 0 0 1 40.26,44.07L23.74,44.07A0.61 0.61 0 0 1 23.13,43.46L23.13,39.81A0.61 0.61 0 0 1 23.74,39.20z"/>
	<path
		transform = "rotate(-0.00 32.00 23.00)"
		fill="url(#fillGrad33)"
		stroke="#000000"
		fill-opacity="1.0"
		stroke-opacity="1.000"
		fill-rule="nonzero"
		stroke-width="0.1359147"
		stroke-linejoin="miter"
		stroke-linecap="square"
		d="M23.40,21.92L40.60,21.92A0.27 0.27 0 0 1 40.87,22.19L40.87,23.81A0.27 0.27 0 0 1 40.60,24.08L23.40,24.08A0.27 0.27 0 0 1 23.13,23.81L23.13,22.19A0.27 0.27 0 0 1 23.40,21.92z"/>
	<path
		fill="#7D7D7D"
		stroke="#000000"
		fill-opacity="1.000"
		stroke-opacity="1.000"
		fill-rule="nonzero"
		stroke-width="0.1359147"
		stroke-linejoin="miter"
		stroke-linecap="square"
		d="M29.18,40.29L34.82,40.29A1.35 1.35 0 0 1 36.17,41.64L36.17,41.64A1.35 1.35 0 0 1 34.82,42.99L29.18,42.99A1.35 1.35 0 0 1 27.83,41.64L27.83,41.64A1.35 1.35 0 0 1 29.18,40.29z"/>
	<path
		fill="#7D7D7D"
		stroke="#009608"
		fill-opacity="0.000"
		stroke-opacity="1.000"
		fill-rule="nonzero"
		stroke-width="0.40774408"
		stroke-linejoin="miter"
		stroke-linecap="square"
		d="M28.87,33.80C29.82,34.07,30.77,34.33,32.00,34.88C33.23,35.44,34.74,36.28,34.09,37.04C33.43,37.81,30.62,38.50,29.91,39.20C29.21,39.91,30.60,40.64,32.00,41.37"/>
	<path
		transform = "rotate(-0.00 32.00 30.06)"
		fill="url(#fillGrad42)"
		stroke="#000000"
		fill-opacity="1.0"
		stroke-opacity="1.000"
		fill-rule="nonzero"
		stroke-width="0.48480958"
		stroke-linejoin="miter"
		stroke-linecap="square"
		d="M22.91,40.67L41.09,40.67L41.09,28.55A9.09 9.09 -0.00 1 0 22.91,28.55L22.91,40.67z"/>
	<path
		fill="#FFC993"
		stroke="#000000"
		fill-opacity="1.000"
		stroke-opacity="1.000"
		fill-rule="nonzero"
		stroke-width="0.48480958"
		stroke-linejoin="miter"
		stroke-linecap="square"
		d="M32.00,10.36C35.35,10.36,38.06,13.08,38.06,16.42C38.06,19.77,35.35,22.48,32.00,22.48C28.65,22.48,25.94,19.77,25.94,16.42C25.94,13.08,28.65,10.36,32.00,10.36z"/>
	<path
		fill="#0082FF"
		stroke="#000000"
		fill-opacity="1.000"
		stroke-opacity="1.000"
		fill-rule="nonzero"
		stroke-width="0.096961915"
		stroke-linejoin="miter"
		stroke-linecap="square"
		d="M35.03,24.00C35.87,24.00,36.55,24.68,36.55,25.52C36.55,26.35,35.87,27.03,35.03,27.03C34.19,27.03,33.52,26.35,33.52,25.52C33.52,24.68,34.19,24.00,35.03,24.00z"/>
	<path
		fill="#004990"
		stroke="#000000"
		fill-opacity="1.000"
		stroke-opacity="1.000"
		fill-rule="nonzero"
		stroke-width="0.096961915"
		stroke-linejoin="miter"
		stroke-linecap="square"
		d="M25.94,34.61L38.06,34.61L38.06,37.64L25.94,37.64z"/>
	<path
		transform = "rotate(-0.00 32.00 16.42)"
		fill="url(#fillGrad46)"
		stroke="#FFFFFF"
		fill-opacity="1.0"
		stroke-opacity="1.000"
		fill-rule="nonzero"
		stroke-width="0.096961915"
		stroke-linejoin="miter"
		stroke-linecap="square"
		d="M32.00,7.33C37.02,7.33,41.09,11.40,41.09,16.42C41.09,21.45,37.02,25.52,32.00,25.52C26.98,25.52,22.91,21.45,22.91,16.42C22.91,11.40,26.98,7.33,32.00,7.33z"/>
	<path
		transform = "rotate(-0.00 41.09 28.55)"
		fill="url(#fillGrad47)"
		stroke="#000000"
		fill-opacity="1.0"
		stroke-opacity="1.000"
		fill-rule="nonzero"
		stroke-width="0.19392383"
		stroke-linejoin="miter"
		stroke-linecap="square"
		d="M41.09,25.52C42.76,25.52,44.12,26.87,44.12,28.55C44.12,30.22,42.76,31.58,41.09,31.58C39.42,31.58,38.06,30.22,38.06,28.55C38.06,26.87,39.42,25.52,41.09,25.52z"/>
	<path
		transform = "rotate(-0.00 22.91 28.55)"
		fill="url(#fillGrad48)"
		stroke="#000000"
		fill-opacity="1.0"
		stroke-opacity="1.000"
		fill-rule="nonzero"
		stroke-width="0.19392383"
		stroke-linejoin="miter"
		stroke-linecap="square"
		d="M22.91,25.52C24.58,25.52,25.94,26.87,25.94,28.55C25.94,30.22,24.58,31.58,22.91,31.58C21.24,31.58,19.88,30.22,19.88,28.55C19.88,26.87,21.24,25.52,22.91,25.52z"/>
	<path
		fill="#FFFFFF"
		stroke="#000000"
		fill-opacity="1.000"
		stroke-opacity="1.000"
		fill-rule="nonzero"
		stroke-width="0.07011935"
		stroke-linejoin="miter"
		stroke-linecap="square"
		d="M26.52,34.96L32.00,34.96L32.00,37.15L26.52,37.15z"/>
	<path
		fill="#FFFFFF"
		stroke="#000000"
		fill-opacity="1.000"
		stroke-opacity="1.000"
		fill-rule="nonzero"
		stroke-width="0.07011935"
		stroke-linejoin="miter"
		stroke-linecap="square"
		d="M34.47,34.96L36.11,34.96A0.27 0.27 0 0 1 36.38,35.23L36.38,36.87A0.27 0.27 0 0 1 36.11,37.15L34.47,37.15A0.27 0.27 0 0 1 34.19,36.87L34.19,35.23A0.27 0.27 0 0 1 34.47,34.96z"/>
</svg>