<?xml version="1.0" encoding="utf-8"?>
<svg
	version="1.1"
	xmlns="http://www.w3.org/2000/svg"
	xmlns:xlink="http://www.w3.org/1999/xlink"
	x="0px" y="0px"
	width="1920.0px" height="1280.0px"
	viewBox="0 0 1920.0 1280.0"
	enable-background="new 0 0 1920.0 1280.0"
	xml:space="preserve">
	<path
		fill="#1563FF"
		stroke="#000000"
		fill-opacity="1.000"
		stroke-opacity="1.000"
		fill-rule="nonzero"
		stroke-width="12.799999"
		stroke-linejoin="miter"
		stroke-linecap="square"
		d="M65.65,17.07L1854.35,17.07A46.45 46.45 0 0 1 1900.80,63.52L1900.80,1216.48A46.45 46.45 0 0 1 1854.35,1262.93L65.65,1262.93A46.45 46.45 0 0 1 19.20,1216.48L19.20,63.52A46.45 46.45 0 0 1 65.65,17.07z"/>
	<path
		fill="#FFFFFF"
		stroke="#000000"
		fill-opacity="1.000"
		stroke-opacity="1.000"
		fill-rule="nonzero"
		stroke-width="12.799999"
		stroke-linejoin="miter"
		stroke-linecap="square"
		d="M57.60,102.40L1862.40,102.40"/>
	<path
		fill="#FFFFFF"
		stroke="#000000"
		fill-opacity="1.000"
		stroke-opacity="1.000"
		fill-rule="nonzero"
		stroke-width="7.6800003"
		stroke-linejoin="miter"
		stroke-linecap="square"
		d="M57.60,153.60L1862.40,153.60L1862.40,1228.80L57.60,1228.80z"/>
	<path
		fill="#FF9A00"
		stroke="#000000"
		fill-opacity="1.000"
		stroke-opacity="1.000"
		fill-rule="nonzero"
		stroke-width="2.5600002"
		stroke-linejoin="miter"
		stroke-linecap="square"
		d="M76.80,34.13L115.20,34.13L115.20,85.33L76.80,85.33z"/>
	<path
		fill="#FF9A00"
		stroke="#000000"
		fill-opacity="1.000"
		stroke-opacity="1.000"
		fill-rule="nonzero"
		stroke-width="35.84"
		stroke-linejoin="miter"
		stroke-linecap="square"
		d="M160.00,64.00L960.00,64.00"/>
	<path
		fill="#FF6B4F"
		stroke="#000000"
		fill-opacity="1.000"
		stroke-opacity="1.000"
		fill-rule="nonzero"
		stroke-width="5.1200004"
		stroke-linejoin="miter"
		stroke-linecap="square"
		d="M57.60,153.60L288.00,153.60L288.00,1228.80L57.60,1228.80z"/>
	<path
		fill="#00FFFE"
		stroke="#000000"
		fill-opacity="1.000"
		stroke-opacity="1.000"
		fill-rule="nonzero"
		stroke-width="5.1200004"
		stroke-linejoin="miter"
		stroke-linecap="square"
		d="M57.60,153.60L1862.40,153.60L1862.40,238.93L57.60,238.93z"/>
	<path
		fill="#00FF7D"
		stroke="#000000"
		fill-opacity="1.000"
		stroke-opacity="1.000"
		fill-rule="nonzero"
		stroke-width="5.1200004"
		stroke-linejoin="miter"
		stroke-linecap="square"
		d="M307.20,256.00L710.40,256.00L710.40,1211.73L307.20,1211.73z"/>
	<path
		fill="#FF9A00"
		stroke="#000000"
		fill-opacity="1.000"
		stroke-opacity="1.000"
		fill-rule="nonzero"
		stroke-width="5.1200004"
		stroke-linejoin="miter"
		stroke-linecap="square"
		d="M729.60,256.00L1843.20,256.00L1843.20,563.20L729.60,563.20z"/>
	<path
		fill="#BD49FF"
		stroke="#000000"
		fill-opacity="1.000"
		stroke-opacity="1.000"
		fill-rule="nonzero"
		stroke-width="5.1200004"
		stroke-linejoin="miter"
		stroke-linecap="square"
		d="M729.60,580.27L1344.00,580.27L1344.00,1211.73L729.60,1211.73z"/>
	<path
		fill="#FF0000"
		stroke="#000000"
		fill-opacity="1.000"
		stroke-opacity="1.000"
		fill-rule="nonzero"
		stroke-width="2.5600002"
		stroke-linejoin="miter"
		stroke-linecap="square"
		d="M1792.00,34.13L1836.80,34.13A6.40 6.40 0 0 1 1843.20,40.53L1843.20,78.93A6.40 6.40 0 0 1 1836.80,85.33L1792.00,85.33A6.40 6.40 0 0 1 1785.60,78.93L1785.60,40.53A6.40 6.40 0 0 1 1792.00,34.13z"/>
	<path
		fill="#001BFF"
		stroke="#000000"
		fill-opacity="1.000"
		stroke-opacity="1.000"
		fill-rule="nonzero"
		stroke-width="2.5600002"
		stroke-linejoin="miter"
		stroke-linecap="square"
		d="M1715.20,34.13L1760.00,34.13A6.40 6.40 0 0 1 1766.40,40.53L1766.40,78.93A6.40 6.40 0 0 1 1760.00,85.33L1715.20,85.33A6.40 6.40 0 0 1 1708.80,78.93L1708.80,40.53A6.40 6.40 0 0 1 1715.20,34.13z"/>
	<path
		fill="#F5FF4A"
		stroke="#000000"
		fill-opacity="1.000"
		stroke-opacity="1.000"
		fill-rule="nonzero"
		stroke-width="5.1200004"
		stroke-linejoin="miter"
		stroke-linecap="square"
		d="M1363.20,580.27L1843.20,580.27L1843.20,1211.73L1363.20,1211.73z"/>
</svg>